<svg width="18" height="18" viewBox="0 0 18 18" fill="none" xmlns="http://www.w3.org/2000/svg">
<path d="M1.66668 17.8002C1.25927 17.8002 0.912975 17.6533 0.62779 17.3596C0.342605 17.0658 0.200012 16.7091 0.200012 16.2895V14.3759L4.11112 10.8005V17.8002H1.66668ZM5.0889 17.8002V13.7716H12.9111V17.8002H5.0889ZM13.8889 17.8002V9.54154L9.7089 5.71436L12.6667 3.02022L17.3111 7.27545C17.4741 7.42652 17.5963 7.59857 17.6778 7.79161C17.7593 7.98465 17.8 8.19028 17.8 8.40849V16.2895C17.8 16.7091 17.6574 17.0658 17.3722 17.3596C17.087 17.6533 16.7408 17.8002 16.3333 17.8002H13.8889ZM0.200012 13.0162V8.40849C0.200012 8.19028 0.240753 7.98045 0.322234 7.77902C0.403716 7.57759 0.525938 7.40973 0.688901 7.27545L8.02223 0.577878C8.1526 0.443591 8.30335 0.347072 8.47446 0.288321C8.64557 0.229571 8.82075 0.200195 9.00001 0.200195C9.17927 0.200195 9.35446 0.229571 9.52557 0.288321C9.69668 0.347072 9.84742 0.443591 9.97779 0.577878L11.9333 2.36557L0.200012 13.0162Z" fill="white"/>
</svg>
