<svg width="24" height="24" viewBox="0 0 24 24" fill="none" xmlns="http://www.w3.org/2000/svg">
<path d="M1.18087 16.0527C0.511006 15.0664 0.112279 13.5664 0.020572 12.0742C-0.0711352 10.5898 0.142184 9.0625 0.692427 8.00977L1.25064 6.94141L2.20559 7.69141L11.2826 14.8242C11.6534 13.4883 11.7671 12.1504 11.6574 10.8848C11.5079 9.17383 10.7483 7.32031 9.84121 6.10742L11.5597 5.125C12.6841 6.62891 13.4696 8.6543 13.651 10.7227C13.8225 12.6699 13.5314 14.7715 12.7001 16.8242L12.2017 18.0547L11.147 17.2266L2.09594 10.1133C2.00224 10.6797 1.97633 11.3164 2.0162 11.959C2.08797 13.1348 2.37505 14.2773 2.84754 14.9727L1.18087 16.0527ZM18.4557 22.8027C20.6946 19.373 22.0084 15.0059 22.0064 11.6113C22.0044 7.34766 20.6407 3.49414 18.9043 0.974609L20.6467 0C22.5446 2.78516 24 6.99219 24 11.6113C24.002 15.3457 22.5108 20.2246 20.0446 24L18.4557 22.8027ZM14.3109 19.6328C15.9078 17.3867 16.8608 14.3359 16.8448 11.502C16.8289 8.67969 16.0015 5.83594 14.3668 3.54883L16.0972 2.56641C17.9234 5.1543 18.8205 8.33789 18.8385 11.4941C18.8564 14.7227 17.724 18.2559 15.8919 20.8359L14.3109 19.6328Z" fill="black"/>
</svg>
