<svg width="18" height="18" viewBox="0 0 18 18" fill="none" xmlns="http://www.w3.org/2000/svg">
<path d="M14.2611 13.8402L12.9762 15.1162C12.8861 15.2042 12.841 15.3069 12.841 15.4242C12.841 15.5415 12.8861 15.6442 12.9762 15.7322C13.0664 15.8202 13.1716 15.8642 13.2918 15.8642C13.412 15.8642 13.5172 15.8202 13.6074 15.7322L15.3656 14.0162C15.5459 13.8402 15.6361 13.6349 15.6361 13.4002C15.6361 13.1655 15.5459 12.9602 15.3656 12.7842L13.6074 11.0682C13.5172 10.9802 13.412 10.9362 13.2918 10.9362C13.1716 10.9362 13.0664 10.9802 12.9762 11.0682C12.8861 11.1562 12.841 11.2589 12.841 11.3762C12.841 11.4935 12.8861 11.5962 12.9762 11.6842L14.2836 12.9602H11.0377C10.9175 12.9602 10.8123 13.0042 10.7221 13.0922C10.632 13.1802 10.5869 13.2829 10.5869 13.4002C10.5869 13.5175 10.632 13.6202 10.7221 13.7082C10.8123 13.7962 10.9175 13.8402 11.0377 13.8402H14.2611ZM13.2918 17.8002C12.0445 17.8002 10.9813 17.3712 10.1023 16.5132C9.22315 15.6552 8.7836 14.6175 8.7836 13.4002C8.7836 12.1829 9.22315 11.1452 10.1023 10.2872C10.9813 9.4292 12.0445 9.0002 13.2918 9.0002C14.5391 9.0002 15.6023 9.4292 16.4813 10.2872C17.3604 11.1452 17.8 12.1829 17.8 13.4002C17.8 14.6175 17.3604 15.6552 16.4813 16.5132C15.6023 17.3712 14.5391 17.8002 13.2918 17.8002ZM7.49877 17.8002C7.09303 17.8002 6.78121 17.6682 6.56332 17.4042C6.34542 17.1402 6.20642 16.8175 6.14631 16.4362L5.94344 14.9842C5.74808 14.9109 5.564 14.8229 5.39119 14.7202C5.21837 14.6175 5.04931 14.5075 4.88401 14.3902L3.48647 14.9622C3.11079 15.1235 2.73511 15.1382 2.35942 15.0062C1.98374 14.8742 1.69071 14.6395 1.48032 14.3022L0.420899 12.4982C0.210516 12.1609 0.150407 11.8015 0.240571 11.4202C0.330735 11.0389 0.533603 10.7235 0.849177 10.4742L2.04385 9.5942C2.02882 9.49153 2.02131 9.39253 2.02131 9.2972V8.7032C2.02131 8.60786 2.02882 8.50886 2.04385 8.40619L0.849177 7.5262C0.533603 7.27686 0.330735 6.96153 0.240571 6.5802C0.150407 6.19886 0.210516 5.83953 0.420899 5.5022L1.48032 3.6982C1.69071 3.36086 1.98374 3.1262 2.35942 2.9942C2.73511 2.8622 3.11079 2.87686 3.48647 3.0382L4.88401 3.6102C5.04931 3.49286 5.22213 3.38286 5.40246 3.2802C5.58278 3.17753 5.76311 3.08953 5.94344 3.0162L6.14631 1.5642C6.20642 1.18286 6.38299 0.860195 6.67602 0.596195C6.96905 0.332195 7.31844 0.200195 7.72418 0.200195H9.84303C10.2488 0.200195 10.5982 0.332195 10.8912 0.596195C11.1842 0.860195 11.3608 1.18286 11.4209 1.5642L11.6238 3.0162C11.8191 3.08953 12.0032 3.17753 12.176 3.2802C12.3488 3.38286 12.5179 3.49286 12.6832 3.6102L14.0807 3.0382C14.4564 2.87686 14.8321 2.8622 15.2078 2.9942C15.5835 3.1262 15.8765 3.36086 16.0869 3.6982L17.1463 5.5022C17.3567 5.83953 17.4168 6.19886 17.3266 6.5802C17.2365 6.96153 17.0336 7.27686 16.718 7.5262L16.177 7.9222C15.9817 8.08353 15.7638 8.14586 15.5234 8.1092C15.2829 8.07253 15.0801 7.95886 14.9148 7.7682C14.7494 7.57753 14.6818 7.36486 14.7119 7.1302C14.7419 6.89553 14.8546 6.69753 15.05 6.5362L15.4783 6.2282L14.5992 4.7322L12.3676 5.6562C12.037 5.31886 11.6726 5.03653 11.2744 4.8092C10.8762 4.58186 10.4441 4.40953 9.97828 4.2922L9.68524 1.9602H7.90451L7.58893 4.2922C7.12308 4.40953 6.69105 4.58186 6.29282 4.8092C5.8946 5.03653 5.53019 5.31153 5.19959 5.6342L2.96803 4.7322L2.08893 6.2282L4.02746 7.6362C3.95232 7.85619 3.89972 8.0762 3.86967 8.2962C3.83961 8.5162 3.82459 8.75086 3.82459 9.0002C3.82459 9.23486 3.83961 9.4622 3.86967 9.6822C3.89972 9.9022 3.95232 10.1222 4.02746 10.3422L2.08893 11.7722L2.96803 13.2682L5.19959 12.3442C5.45505 12.5935 5.7293 12.8172 6.02233 13.0152C6.31537 13.2132 6.6347 13.3782 6.98032 13.5102C6.99535 14.1555 7.1043 14.7679 7.30717 15.3472C7.51004 15.9265 7.78429 16.4582 8.12992 16.9422C8.25013 17.1182 8.24262 17.3052 8.10737 17.5032C7.97213 17.7012 7.76926 17.8002 7.49877 17.8002ZM8.82868 5.9202C7.9571 5.9202 7.21325 6.2172 6.59713 6.8112C5.98101 7.4052 5.67295 8.13486 5.67295 9.0002C5.67295 9.3082 5.71803 9.60886 5.80819 9.9022C5.89836 10.1955 6.0336 10.4742 6.21393 10.7382C6.37923 10.9582 6.59337 11.0975 6.85635 11.1562C7.11933 11.2149 7.35601 11.1635 7.56639 11.0022C7.77677 10.8555 7.90075 10.6612 7.93832 10.4192C7.97588 10.1772 7.91202 9.9682 7.74672 9.7922C7.65655 9.67486 7.58893 9.55386 7.54385 9.4292C7.49877 9.30453 7.47623 9.16153 7.47623 9.0002C7.47623 8.63353 7.60772 8.32186 7.87069 8.0652C8.13367 7.80853 8.453 7.6802 8.82868 7.6802C8.97896 7.6802 9.12547 7.70586 9.26823 7.7572C9.41099 7.80853 9.54248 7.8782 9.6627 7.9662C9.84303 8.0982 10.0459 8.14586 10.2713 8.1092C10.4967 8.07253 10.6846 7.95153 10.8348 7.7462C10.9851 7.54086 11.0339 7.31353 10.9813 7.0642C10.9288 6.81486 10.7973 6.60953 10.5869 6.44819C10.3765 6.2722 10.121 6.1402 9.82049 6.0522C9.51994 5.9642 9.18934 5.9202 8.82868 5.9202Z" fill="white"/>
</svg>
